<?xml version="1.0" encoding="UTF-8" standalone="no"?>
<svg width="50px" height="56px" viewBox="0 0 50 56" version="1.1" xmlns="http://www.w3.org/2000/svg" xmlns:xlink="http://www.w3.org/1999/xlink" xmlns:sketch="http://www.bohemiancoding.com/sketch/ns">
    <!-- Generator: Sketch 3.3.3 (12081) - http://www.bohemiancoding.com/sketch -->
    <title>microphone</title>
    <desc>Created with Sketch.</desc>
    <defs></defs>
    <g id="Page-1" stroke="none" stroke-width="1" fill="none" fill-rule="evenodd" sketch:type="MSPage">
        <g id="microphone" sketch:type="MSLayerGroup" fill="#1ED760">
            <path d="M48.4283372,18.8379391 C44.2296253,18.0892272 40.254918,16.1038642 37.088993,12.9428571 C33.9264637,9.77868852 31.9433255,5.80620609 31.1973068,1.60655738 C35.4485948,-1.05679157 41.6114754,-0.113466042 45.8800937,4.15374707 C50.1459016,8.42096019 51.0886417,14.5848946 48.4283372,18.8379391 L48.4283372,18.8379391 Z M45.4947307,21.7721311 C41.462178,20.645082 37.6819672,18.5540984 34.5783372,15.45363 C31.478103,12.35 29.3866511,8.56990632 28.2652225,4.53899297 C25.6055035,8.79203747 26.5487119,14.9528103 30.8125293,19.2197892 C35.0812646,23.4851288 41.2401639,24.4299766 45.4947307,21.7721311 L45.4947307,21.7721311 Z M28.6101874,40.671897 C23.3064403,40.671897 19.5142857,43.9864169 16.1681499,46.909719 C12.4713115,50.1416862 9.26697892,52.9440281 4.55257611,51.4909836 C3.61978923,50.8040984 3.59215457,50.24274 3.58173302,50.0521077 C3.51569087,48.7755269 5.06229508,47.0627635 5.82189696,46.4314988 C5.91557377,46.3550351 5.96885246,46.251171 6.04215457,46.1577283 C7.28700234,46.5911007 8.71721311,46.3407494 9.71451991,45.3461358 L33.8641686,25.4667447 C31.8667447,24.6188525 29.9633489,23.391452 28.3042155,21.7300937 C26.6423888,20.0689696 25.4186183,18.163466 24.5721311,16.1697892 L4.69473068,40.3216628 C3.81042155,41.2058548 3.55386417,42.4295082 3.79484778,43.5667447 C3.72025761,43.612178 3.63688525,43.6327869 3.5675644,43.6886417 C3.18770492,44.0007026 -0.130796253,46.8234192 0.0339578454,50.2181499 C0.0929742389,51.4117096 0.61323185,53.1347775 2.76838407,54.5775176 L3.19332553,54.7851288 C4.57540984,55.24637 5.86346604,55.4474239 7.07400468,55.4474239 C11.7970726,55.4474239 15.3203747,52.3685012 18.5056206,49.5836066 C21.6594848,46.8264637 24.6398126,44.2224824 28.6103044,44.2224824 C37.7624122,44.2224824 44.8467213,54.0293911 44.9193208,54.1261124 C45.4844262,54.9343091 46.5982436,55.1141686 47.3922717,54.54637 C48.1934426,53.9806792 48.3803279,52.8741218 47.8152225,52.0740047 C47.4855972,51.6088993 39.6105386,40.671897 28.6101874,40.671897 L28.6101874,40.671897 Z" id="Shape" sketch:type="MSShapeGroup"></path>
        </g>
    </g>
</svg>