<?xml version="1.0" encoding="UTF-8" standalone="no"?>
<svg width="50px" height="50px" viewBox="0 0 50 50" version="1.1" xmlns="http://www.w3.org/2000/svg" xmlns:xlink="http://www.w3.org/1999/xlink" xmlns:sketch="http://www.bohemiancoding.com/sketch/ns">
    <!-- Generator: Sketch 3.3.3 (12081) - http://www.bohemiancoding.com/sketch -->
    <title>sound-bars-pulse</title>
    <desc>Created with Sketch.</desc>
    <defs></defs>
    <g id="Page-1" stroke="none" stroke-width="1" fill="none" fill-rule="evenodd" sketch:type="MSPage">
        <g id="sound-bars-pulse" sketch:type="MSLayerGroup" fill="#1ED760">
            <g id="Group" sketch:type="MSShapeGroup">
                <path d="M2.56382979,33.9744681 C1.14787234,33.9744681 0,32.8276596 0,31.4106383 L0,18.5914894 C0,17.1755319 1.14787234,16.0276596 2.56382979,16.0276596 C3.97978723,16.0276596 5.12765957,17.1755319 5.12765957,18.5914894 L5.12765957,31.4106383 C5.12765957,32.8244681 3.97978723,33.9744681 2.56382979,33.9744681 L2.56382979,33.9744681 Z" id="Shape"></path>
                <path d="M10.0425532,40.3851064 C8.62659574,40.3851064 7.4787234,39.237234 7.4787234,37.8212766 L7.4787234,12.1787234 C7.4787234,10.762766 8.62659574,9.61489362 10.0425532,9.61489362 C11.4585106,9.61489362 12.606383,10.762766 12.606383,12.1787234 L12.606383,37.8212766 C12.6074468,39.237234 11.4585106,40.3851064 10.0425532,40.3851064 L10.0425532,40.3851064 Z" id="Shape"></path>
                <path d="M17.5212766,37.1787234 C16.1053191,37.1787234 14.9574468,36.0308511 14.9574468,34.6148936 L14.9574468,15.3851064 C14.9574468,13.9691489 16.1053191,12.8212766 17.5212766,12.8212766 C18.937234,12.8212766 20.0861702,13.9691489 20.0861702,15.3851064 L20.0861702,34.6148936 C20.0851064,36.0308511 18.937234,37.1787234 17.5212766,37.1787234 L17.5212766,37.1787234 Z" id="Shape"></path>
                <path d="M25,43.5904255 C23.5840426,43.5904255 22.4361702,42.443617 22.4361702,41.0265957 L22.4361702,8.97446809 C22.4361702,7.55851064 23.5840426,6.4106383 25,6.4106383 C26.4159574,6.4106383 27.5638298,7.55851064 27.5638298,8.97446809 L27.5638298,41.0255319 C27.5638298,42.4425532 26.4159574,43.5904255 25,43.5904255 L25,43.5904255 Z" id="Shape"></path>
                <path d="M32.4776596,50 C31.062766,50 29.9138298,48.8521277 29.9138298,47.4361702 L29.9138298,2.56382979 C29.9138298,1.14787234 31.062766,0 32.4776596,0 C33.8946809,0 35.0414894,1.14787234 35.0414894,2.56382979 L35.0414894,47.4361702 C35.0414894,48.8521277 33.8946809,50 32.4776596,50 L32.4776596,50 Z" id="Shape"></path>
                <path d="M39.9585106,40.3851064 C38.5414894,40.3851064 37.3946809,39.237234 37.3946809,37.8212766 L37.3946809,12.1787234 C37.3946809,10.762766 38.5414894,9.61489362 39.9585106,9.61489362 C41.3734043,9.61489362 42.5223404,10.762766 42.5223404,12.1787234 L42.5223404,37.8212766 C42.5223404,39.237234 41.3734043,40.3851064 39.9585106,40.3851064 L39.9585106,40.3851064 Z" id="Shape"></path>
                <path d="M47.4361702,30.7691489 C46.0202128,30.7691489 44.8723404,29.6212766 44.8723404,28.206383 L44.8723404,21.7957447 C44.8723404,20.3797872 46.0202128,19.2319149 47.4361702,19.2319149 C48.8521277,19.2319149 50,20.3797872 50,21.7957447 L50,28.206383 C50,29.6212766 48.8521277,30.7691489 47.4361702,30.7691489 L47.4361702,30.7691489 Z" id="Shape"></path>
            </g>
        </g>
    </g>
</svg>